<svg xmlns="http://www.w3.org/2000/svg" viewBox="0 0 480 320"><rect width="480" height="320" fill="#2a313a"/><rect x="20" y="40" width="440" height="240" rx="12" stroke="#8b96a3" stroke-width="3" fill="none"/><circle cx="105" cy="170" r="70" stroke="#8b96a3" stroke-width="3" fill="none"/><circle cx="375" cy="170" r="70" stroke="#8b96a3" stroke-width="3" fill="none"/><circle cx="105" cy="170" r="20" stroke="#4cc2ff" stroke-width="3" fill="none"/><circle cx="375" cy="170" r="20" stroke="#4cc2ff" stroke-width="3" fill="none"/><rect x="195" y="60" width="90" height="200" stroke="#8b96a3" stroke-width="3" fill="none"/><g stroke="#8b96a3" stroke-width="3" fill="none"><line x1="215" y1="100" x2="215" y2="200"/><line x1="265" y1="100" x2="265" y2="200"/><rect x="208" y="140" width="14" height="20"/><rect x="258" y="140" width="14" height="20"/><rect x="215" y="228" width="50" height="14"/></g><rect x="228" y="226" width="12" height="18" fill="#4cc2ff"/><g stroke="#8b96a3" stroke-width="3" fill="none"><rect x="40" y="60" width="26" height="22"/><rect x="70" y="60" width="26" height="22"/><rect x="100" y="60" width="26" height="22"/><rect x="130" y="60" width="26" height="22"/><rect x="324" y="60" width="26" height="22"/><rect x="354" y="60" width="26" height="22"/><rect x="384" y="60" width="26" height="22"/><rect x="414" y="60" width="26" height="22"/></g></svg>
