<svg xmlns="http://www.w3.org/2000/svg" viewBox="0 0 480 320" fill="none" stroke="#8b96a3" stroke-width="2">
<rect x="1" y="1" width="478" height="318" rx="12" fill="none" stroke="none"/>
<rect x="40" y="100" width="400" height="120" rx="8" stroke="#2a313a" fill="none" stroke-width="3"/><circle cx="90" cy="160" r="18" stroke="#8b96a3" stroke-width="2"/><circle cx="150" cy="160" r="18" stroke="#8b96a3" stroke-width="2"/><circle cx="210" cy="140" r="10" stroke="#8b96a3" stroke-width="2"/><line x1="210" y1="140" x2="210" y2="132" stroke="#4cc2ff"/><circle cx="250" cy="140" r="10" stroke="#8b96a3" stroke-width="2"/><line x1="250" y1="140" x2="250" y2="132" stroke="#4cc2ff"/><circle cx="290" cy="140" r="10" stroke="#8b96a3" stroke-width="2"/><line x1="290" y1="140" x2="290" y2="132" stroke="#4cc2ff"/><circle cx="330" cy="140" r="10" stroke="#8b96a3" stroke-width="2"/><line x1="330" y1="140" x2="330" y2="132" stroke="#4cc2ff"/><rect x="80" y="190" width="20" height="10" rx="2" stroke="#8b96a3" fill="none" stroke-width="3"/><rect x="140" y="190" width="20" height="10" rx="2" stroke="#8b96a3" fill="none" stroke-width="3"/><rect x="200" y="190" width="20" height="10" rx="2" stroke="#8b96a3" fill="none" stroke-width="3"/><rect x="260" y="190" width="20" height="10" rx="2" stroke="#8b96a3" fill="none" stroke-width="3"/><rect x="320" y="190" width="20" height="10" rx="2" stroke="#8b96a3" fill="none" stroke-width="3"/><rect x="380" y="190" width="20" height="10" rx="2" stroke="#8b96a3" fill="none" stroke-width="3"/><rect x="360" y="120" width="60" height="30" rx="3" stroke="#4cc2ff" fill="none" stroke-width="3"/><circle cx="400" cy="185" r="8" stroke="#8b96a3" stroke-width="2"/>
</svg>
